<svg width="726" height="1096" viewBox="0 0 726 1096" fill="none" xmlns="http://www.w3.org/2000/svg">
<g filter="url(#filter0_d_2168_44)">
<g clip-path="url(#clip0_2168_44)">
<path d="M709.574 860.034L717.999 853.36C712.645 851.431 711.592 851.691 709.574 851.222L704.659 850.492L695.356 849.293L677.189 847.207L641.205 843.036C617.246 840.22 593.462 837.196 569.677 833.963C522.197 827.445 475.155 819.989 428.903 811.125C336.663 793.344 246.09 770.662 167.98 737.031C129.188 720.189 93.9069 700.375 67.1388 677.015C40.1951 653.707 23.0811 626.698 18.4296 598.645C13.6903 570.645 20.5359 541.81 35.3681 514.905C50.4635 487.947 75.3886 463.127 106.72 441.488C137.965 419.797 175.264 401.182 214.934 384.653C254.691 368.124 296.906 353.629 339.91 339.915C382.915 326.15 426.709 313.166 470.065 299.453C513.333 285.687 556.425 271.348 596.533 253.985L611.278 247.206L618.65 243.817L625.671 240.167L639.625 232.815L652.702 224.837L659.197 220.822L665.077 216.495C668.939 213.575 673.064 210.759 676.662 207.735C683.42 201.426 690.704 195.325 695.707 188.39C701.85 181.82 705.098 174.52 709.31 167.429C710.802 163.779 711.856 160.077 713.084 156.427C713.699 154.602 714.313 152.777 714.84 150.9L715.454 145.321C718.438 130.512 714.927 115.026 706.326 100.895C697.462 86.7648 683.244 73.9899 666.13 63.1444C649.016 52.2466 629.357 43.0174 608.469 35.0397C566.43 19.2406 520.617 7.7693 472.698 0.0522461L471.557 2.76364C518.686 10.585 564.148 22.2127 605.222 37.9597C625.671 45.8853 644.891 55.0623 661.303 65.7515C677.803 76.3885 691.231 88.7462 699.569 102.303C707.555 115.912 710.802 130.512 707.643 144.851L707.029 150.222C706.502 151.995 705.888 153.768 705.273 155.54C704.045 159.034 702.991 162.632 701.499 166.125C697.374 172.904 694.215 179.891 688.159 186.148C683.332 192.77 676.135 198.61 669.553 204.658C666.043 207.578 661.918 210.29 658.144 213.105L652.351 217.277L645.945 221.135L633.131 228.852L619.352 235.944L612.506 239.489L605.222 242.774L590.741 249.344C551.071 266.186 508.155 280.213 464.887 293.717C421.531 307.17 377.561 319.945 334.118 333.554C290.762 347.163 247.846 361.554 207.211 378.136C166.664 394.717 128.223 413.54 95.5744 435.805C62.9261 457.965 36.509 483.776 20.3604 511.88C4.47503 539.933 -3.16047 569.863 1.40328 599.636C5.87926 629.409 23.8709 658.4 51.9555 683.116C79.9524 707.935 116.55 728.792 156.395 746.416C196.328 764.04 239.683 778.64 284.356 791.259C329.115 803.825 375.279 814.41 422.058 823.639C468.924 832.816 516.492 840.637 564.324 847.468C588.283 850.857 612.331 854.038 636.378 857.01L672.449 861.338L690.353 863.528L699.042 864.675L702.991 865.248C703.693 865.353 703.957 865.405 704.396 865.509C704.571 865.457 704.922 865.874 704.571 865.301C705.537 863.371 707.204 861.598 709.486 860.034H709.574Z" fill="#301D1D"/>
<path d="M709.575 912.489L718.088 905.763C712.997 903.886 711.944 904.094 709.926 903.625L705.011 902.843L695.708 901.487L677.453 899.036L641.206 894.135C617.071 890.85 593.111 887.304 569.239 883.55C521.496 876.042 474.191 867.543 427.763 857.688C335.172 837.874 244.599 813.054 166.928 777.649C128.399 759.921 93.3812 739.273 66.8764 715.235C40.3715 691.25 23.1697 663.771 18.6938 635.249C14.13 606.779 20.9756 577.58 36.5099 550.309C52.132 523.039 77.5836 497.854 109.267 475.902C140.949 453.846 178.513 434.762 218.445 417.711C258.466 400.609 300.944 385.592 344.124 371.148L474.717 328.392C517.985 313.792 561.341 298.775 600.922 280.317C610.752 275.624 620.669 271.035 629.797 265.821C639.363 260.92 647.876 255.34 656.565 249.866C660.953 247.154 664.551 244.026 668.589 241.106C672.538 238.134 676.575 235.214 679.822 231.929L690.003 222.334L698.341 212.062C708.434 198.193 715.455 183.228 715.981 168.002C717.912 152.881 714.138 137.343 704.835 123.16C695.532 108.977 681.665 95.9417 664.727 84.7311C647.964 73.4162 628.48 63.6656 607.943 55.0621C566.519 38.0116 520.969 25.0804 473.05 15.9033L471.733 18.6147C518.863 27.896 563.973 40.9837 604.521 57.9821C624.706 66.5334 643.576 76.1797 659.812 87.3382C676.224 98.3402 689.389 111.011 698.165 124.672C706.854 138.385 710.277 153.194 708.258 167.742C707.556 182.393 700.535 196.68 690.705 209.977L682.543 219.779L672.538 229.009C669.466 232.189 665.429 234.953 661.567 237.821C657.618 240.636 654.107 243.661 649.807 246.268C641.294 251.534 632.956 256.957 623.478 261.702C614.526 266.76 604.696 271.192 595.042 275.78C555.811 293.717 512.719 308.421 469.364 322.708L338.156 364.787C294.625 379.074 251.445 394.039 210.634 411.194C169.824 428.296 131.12 447.589 98.1205 470.219C65.1211 492.744 38.1774 518.815 21.5022 547.233C4.82699 575.598 -2.72074 605.997 1.66748 636.187C5.96793 666.378 23.8718 695.786 51.5176 721.127C79.1634 746.573 115.322 768.212 154.904 786.722C234.594 823.691 326.571 849.345 420.303 869.941C467.257 880.161 515.089 889.025 563.271 896.846C587.407 900.757 611.542 904.407 635.852 907.848L672.187 912.906L690.266 915.409L699.043 916.713L703.08 917.39C703.782 917.495 704.045 917.599 704.572 917.703C705.362 917.86 704.747 917.703 704.572 917.703C704.572 917.338 705.713 915.826 706.503 915.044C707.38 914.106 708.521 913.167 709.75 912.333L709.575 912.489Z" fill="#301D1D"/>
<path d="M709.486 964.579L718 957.801C712.997 955.976 711.944 956.132 709.925 955.663L704.923 954.829L695.532 953.369L677.101 950.657L640.416 945.287C616.017 941.637 591.795 937.778 567.659 933.659C519.477 925.42 471.733 916.139 424.955 905.502C331.749 884.124 240.649 857.74 163.241 820.615C124.801 802.052 90.1336 780.621 64.1554 755.802C38.0894 731.086 21.5897 702.982 17.9036 673.938C14.042 644.947 22.2918 615.383 38.8793 587.904C55.6423 560.373 82.0593 535.031 114.532 512.819C146.917 490.502 185.095 471.105 225.642 453.69C266.189 436.222 309.018 420.527 352.461 405.406C395.905 390.285 440.05 375.737 483.581 360.303C527.024 344.921 570.029 328.6 609.172 309.099C619.177 304.406 628.217 298.984 637.608 293.821C642.259 291.162 646.384 288.242 650.772 285.479C655.16 282.663 659.549 279.899 663.322 276.771L675.171 267.646L685.439 257.895C689.125 254.715 691.846 251.221 694.567 247.728C697.112 244.182 700.622 240.897 702.465 237.143C712.119 222.752 715.63 207.213 716.595 191.883C716.595 176.449 711.242 161.015 701.5 146.728C681.753 118.05 645.77 94.8467 605.837 76.1798C565.377 57.6171 520.793 42.7566 473.137 31.5981L471.557 34.2053C518.336 45.4158 562.569 60.4328 602.239 78.9433C641.381 97.5581 676.312 120.501 694.918 148.345C704.045 162.214 708.96 177.023 708.872 191.883C707.731 206.692 704.221 221.552 694.742 235.37C676.224 263.058 641.82 286 603.116 304.719C564.324 323.699 521.583 339.654 478.14 354.776C434.609 369.897 390.288 384.236 346.493 399.201C302.699 414.166 259.343 429.756 218.006 447.276C176.669 464.744 137.439 484.297 103.737 507.135C70.0356 529.869 42.0388 556.045 24.2226 584.723C6.58199 613.349 -2.5455 644.061 1.1406 674.773C4.56341 705.484 21.7652 735.466 48.7966 761.589C75.7403 787.817 111.636 810.342 151.13 829.687C230.557 868.377 322.972 895.595 417.319 917.755C464.624 928.81 512.807 938.352 561.516 946.955C585.827 951.231 610.313 955.246 634.799 959.052L671.572 964.631L689.827 967.395L698.691 968.803L702.816 969.533C703.606 969.637 703.87 969.741 704.396 969.846C704.484 969.846 705.186 970.002 704.572 969.846C703.957 970.315 705.625 968.073 706.327 967.447C707.292 966.404 708.433 965.466 709.75 964.579H709.486Z" fill="#301D1D"/>
<path d="M709.4 1022.93L718.001 1016.1C713.174 1014.32 712.208 1014.43 710.19 1013.96L705.187 1013.02L695.708 1011.4L677.102 1008.33L640.154 1002.17C615.58 998.003 591.093 993.623 566.87 988.982C518.249 979.701 470.242 969.377 423.288 957.645C329.643 934.128 238.456 905.555 161.399 866.552C123.134 847.051 88.8181 824.682 63.1031 799.184C37.3882 773.739 21.064 745.009 17.729 715.444C14.0429 685.879 23.1704 655.897 40.4599 628.001C57.925 600.053 84.9564 574.399 117.868 551.613C150.692 528.775 189.396 508.908 229.943 490.659C270.578 472.409 313.495 455.828 356.938 439.664C400.381 423.552 444.527 407.909 487.883 391.432C531.15 374.903 573.892 357.435 612.683 336.891C617.686 334.441 622.25 331.677 626.901 328.966C631.553 326.254 636.292 323.595 640.768 320.779C649.281 314.887 658.496 309.36 665.956 302.947C682.105 290.745 694.919 276.771 703.783 262.067C713.437 247.415 716.07 231.512 716.421 215.921C715.719 200.226 709.926 184.636 699.658 170.245C679.033 141.358 643.576 117.477 604.258 97.5583C564.501 77.7442 520.619 61.2151 473.489 48.1274L471.558 50.6824C517.898 63.8223 561.429 80.4556 600.396 100.218C639.013 120.032 673.416 143.704 693.076 171.861C702.817 185.835 708.171 200.904 708.698 215.973C708.171 230.99 705.538 246.268 695.972 260.346C687.195 274.477 674.733 287.825 658.847 299.662C651.563 305.867 642.436 311.185 634.098 316.921C629.71 319.632 624.97 322.187 620.407 324.846C615.843 327.506 611.279 330.165 606.364 332.563C567.924 352.586 525.446 369.689 482.09 385.905C438.735 402.121 394.414 417.503 350.619 433.459C306.825 449.414 263.381 465.943 222.044 484.193C180.795 502.547 141.038 522.518 106.985 545.825C72.9327 569.028 44.3216 595.517 25.8033 624.56C7.37278 653.551 -2.5446 684.732 0.878214 715.965C3.94997 747.199 20.8885 777.754 47.5688 804.555C74.1614 831.46 109.618 854.872 148.849 875.156C227.749 915.722 320.253 945.183 414.95 969.481C462.431 981.578 510.965 992.267 559.937 1001.91C584.423 1006.71 609.085 1011.3 633.835 1015.63L670.959 1021.99L689.389 1025.12L698.341 1026.73L702.554 1027.57C703.344 1027.72 703.607 1027.83 704.222 1027.93C704.309 1027.93 705.099 1028.14 704.485 1027.98C703.958 1028.35 704.748 1027.25 705.977 1025.95C707.03 1024.86 708.347 1023.76 709.751 1022.77L709.4 1022.93Z" fill="#301D1D"/>
<path d="M709.312 1082.84L718.001 1075.96C713.349 1074.23 712.384 1074.34 710.365 1073.77L705.363 1072.77L695.796 1070.95L677.015 1067.51L639.715 1060.57C614.965 1055.88 590.304 1050.98 565.817 1045.82C516.933 1035.44 468.574 1024.07 421.445 1011.3C327.362 985.645 236.262 954.933 159.556 914.053C121.467 893.614 87.414 870.41 61.9623 844.183C36.5106 818.007 20.4498 788.703 17.378 758.565C15.7983 743.548 17.378 728.375 21.5029 713.462C23.6971 706.006 26.2422 698.602 30.0161 691.302L35.1942 680.352C37.3005 676.754 39.6702 673.261 41.8643 669.715C60.0315 641.35 87.5895 615.226 120.677 591.814C187.729 545.095 273.036 508.648 359.045 473.921C402.225 456.557 446.019 439.611 489.024 421.831C531.94 403.998 574.155 385.279 612.508 363.692C622.25 358.426 631.026 352.482 640.241 346.85C648.579 340.75 657.794 335.014 665.167 328.444C681.315 315.878 693.865 301.643 703.081 286.73L709.224 275.363L713.086 263.631C714.666 259.72 714.929 255.758 715.368 251.795C715.631 247.832 716.596 243.869 716.245 239.854C715.631 223.899 709.751 208.048 699.482 193.396C678.77 163.935 643.489 139.428 604.17 118.676C564.501 98.0274 520.619 80.5597 473.401 66.4292L471.383 68.9842C517.81 83.1669 561.341 100.739 600.221 121.387C638.837 142.035 673.153 166.386 692.812 195.064C702.642 209.351 707.996 224.629 708.434 240.011C708.785 243.869 707.732 247.676 707.469 251.534C707.03 255.393 706.767 259.199 705.187 262.953L701.325 274.268L695.182 285.218C686.054 299.557 673.767 313.271 657.882 325.472C650.685 331.885 641.558 337.412 633.308 343.357C624.181 348.832 615.492 354.567 605.838 359.729C567.836 380.795 525.709 399.149 482.792 416.669C439.788 434.136 395.73 450.874 352.287 468.081C265.576 502.495 178.952 538.786 109.531 586.339C75.2147 610.116 46.3402 637.022 27.0321 666.43C24.6625 670.132 22.1173 673.782 19.9232 677.484L14.394 688.851C10.4446 696.412 7.63618 704.129 5.26654 711.898C0.615033 727.489 -1.14025 743.392 0.263975 759.243C2.98467 790.998 19.6599 822.127 45.9892 849.658C72.2307 877.293 107.424 901.487 146.304 922.761C224.765 965.205 317.181 996.855 412.142 1023.29C459.798 1036.48 508.507 1048.27 557.831 1058.96C582.493 1064.33 607.33 1069.39 632.255 1074.23L669.643 1081.38L688.249 1084.87L697.376 1086.64L701.676 1087.53L703.432 1087.95C703.432 1087.95 704.309 1088.16 703.783 1088.05C703.607 1088.1 703.256 1088.21 704.924 1086.49C706.152 1085.24 707.557 1084.09 709.049 1082.99L709.312 1082.84Z" fill="#301D1D"/>
<path d="M597.989 296.355C587.194 297.971 576.224 299.588 565.253 301.204C555.424 302.664 540.328 305.219 530.499 306.679C525.496 307.461 525.408 307.409 525.672 310.538C526.813 327.484 527.602 337.652 528.743 354.546C529.182 361.689 523.126 366.851 511.454 369.302C505.925 370.449 500.395 370.71 495.13 368.989C489.6 367.164 487.494 363.723 490.127 360.333C494.779 354.389 503.028 351.156 513.648 349.957C516.895 349.592 519.879 350.479 523.039 350.583C523.916 349.227 523.39 348.028 523.302 346.776C522.161 329.048 521.283 318.098 520.055 300.37C520.055 299.692 519.967 299.014 519.967 298.336C519.967 295.99 520.142 295.729 524.092 295.051C529.358 294.165 534.711 293.435 539.977 292.601C549.807 291.089 564.902 288.534 574.732 287.021C583.157 285.718 591.495 284.414 599.92 283.163C602.816 282.746 603.519 283.059 603.87 284.936C604.045 285.718 603.957 286.5 604.045 287.282C605.449 307.826 605.976 321.592 608.082 342.084C608.96 350.374 594.918 358.561 579.12 357.57C570.344 356.996 565.604 351.782 569.554 346.985C574.469 341.145 586.141 336.765 597.375 337.652C601.676 338.017 601.851 337.964 601.675 335.409C600.973 324.407 600.535 320.184 599.832 309.182C599.569 305.48 599.306 301.778 599.043 298.076C599.043 297.398 599.043 296.72 597.989 296.094V296.355Z" fill="#343434"/>
<path d="M194.745 387.843C181.932 392.484 168.943 397.124 155.953 401.869C144.281 406.093 126.64 412.923 114.968 417.147C109.087 419.285 108.912 419.285 111.281 423.247C124.095 444.73 131.994 457.609 144.807 479.092C150.161 488.112 145.861 496.247 132.52 502.139C126.201 504.954 119.356 506.571 111.369 505.58C103.119 504.537 98.029 500.627 99.17 495.673C101.101 486.913 109.526 480.813 122.428 476.798C126.289 475.598 130.765 475.963 134.89 475.39C135.066 473.46 133.574 472 132.696 470.488C119.268 448.015 110.843 434.145 97.4147 411.672C96.8881 410.838 96.3615 409.951 95.9227 409.117C94.3429 406.093 94.4307 405.728 99.0822 403.955C105.226 401.556 111.545 399.366 117.776 397.02C129.361 392.744 147.002 385.914 158.674 381.638C168.592 377.988 178.509 374.338 188.426 370.74C191.937 369.489 192.99 369.75 194.658 372.096C195.36 373.087 195.886 374.077 196.501 375.068C212.035 401.087 222.04 418.659 238.54 444.469C245.21 454.898 232.747 468.768 211.772 471.218C200.099 472.626 190.533 466.995 192.463 459.903C194.833 451.196 206.857 442.853 221.952 441.341C227.745 440.767 227.832 440.663 225.902 437.43C217.652 423.456 214.229 418.138 205.891 404.216C203.083 399.523 200.274 394.83 197.466 390.137C196.939 389.303 196.588 388.364 194.745 387.895V387.843Z" fill="#242223"/>
<path d="M413.797 465.2C413.71 456.18 413.797 429.796 413.973 420.723C413.973 414.466 413.973 391.575 413.973 386.205H413.797C413.797 386.205 413.797 386.205 413.797 386.153C414.236 385.266 413.359 384.328 411.779 384.067C410.199 383.806 408.707 384.328 408.268 385.266V385.371C408.268 385.371 408.18 385.788 408.268 385.996C408.093 397.415 408.005 445.856 407.917 456.91C407.917 459.048 407.215 459.569 403.266 459.047C386.503 456.649 373.25 458.213 361.841 465.461C351.66 472.135 355.434 479.696 368.16 481.573C381.939 483.606 394.05 482.147 404.845 477.141C412.218 473.752 413.622 469.737 413.534 465.2H413.797ZM384.484 475.681C372.022 475.264 362.104 472.24 362.455 469.007C362.806 465.722 373.162 463.48 385.625 463.897C398.088 464.314 408.005 467.338 407.654 470.571C407.303 473.804 396.947 476.15 384.484 475.681Z" fill="#161511"/>
</g>
</g>
<defs>
<filter id="filter0_d_2168_44" x="0" y="0" width="726" height="1096" filterUnits="userSpaceOnUse" color-interpolation-filters="sRGB">
<feFlood flood-opacity="0" result="BackgroundImageFix"/>
<feColorMatrix in="SourceAlpha" type="matrix" values="0 0 0 0 0 0 0 0 0 0 0 0 0 0 0 0 0 0 127 0" result="hardAlpha"/>
<feOffset dx="4" dy="4"/>
<feGaussianBlur stdDeviation="2"/>
<feComposite in2="hardAlpha" operator="out"/>
<feColorMatrix type="matrix" values="0 0 0 0 0 0 0 0 0 0 0 0 0 0 0 0 0 0 0.25 0"/>
<feBlend mode="normal" in2="BackgroundImageFix" result="effect1_dropShadow_2168_44"/>
<feBlend mode="normal" in="SourceGraphic" in2="effect1_dropShadow_2168_44" result="shape"/>
</filter>
<clipPath id="clip0_2168_44">
<rect width="718" height="1088" fill="white"/>
</clipPath>
</defs>
</svg>
