<svg width="884" height="720" viewBox="0 0 884 720" fill="none" xmlns="http://www.w3.org/2000/svg">
<g clip-path="url(#clip0_2168_60)">
<path d="M20.7015 434.171L21.1434 448.696C100.051 444.538 178.381 436.087 256.396 424.258C334.321 412.316 411.851 396.778 487.861 374.706C525.821 363.613 563.386 350.911 600 335.551C636.525 320.076 672.33 302.175 705.399 279.653C738.271 257.059 768.994 229.592 790.527 194.8C801.232 177.503 809.317 158.42 813.877 138.398C818.483 118.434 819.297 97.6613 817.098 77.4145L814.365 77.708C816.282 97.7167 815.254 118.102 810.489 137.631C805.825 157.171 797.642 175.722 786.985 192.554C765.553 226.362 735.016 253.013 702.32 274.893C669.371 296.747 633.781 314.043 597.37 328.902C560.87 343.648 523.46 355.843 485.603 366.423C409.862 387.373 332.489 401.881 254.822 412.805C177.121 423.569 98.7909 431.027 20.7015 434.171Z" fill="#301D1D"/>
<path d="M26.0758 481.509L26.4672 496.028C108.222 491.955 189.237 482.683 269.845 469.448C350.327 455.939 430.389 438.101 508.201 412.399C547.109 399.522 585.373 384.487 622.456 366.561C659.319 348.299 695.232 327.377 727.462 301.11C759.581 274.936 788.382 243.35 807.603 205.759C817.18 187.039 824.301 166.915 828.37 146.216C832.49 125.523 833.66 104.263 832.354 83.2722L829.632 83.4623C830.701 104.272 829.311 125.195 825.021 145.558C820.737 165.869 813.558 185.568 803.922 203.864C784.641 240.56 755.981 271.272 724.037 296.732C691.982 322.285 656.24 342.545 619.542 360.197C582.624 377.513 544.52 391.989 505.72 404.302C428.126 428.877 348.373 445.702 268.153 458.14C187.91 470.314 106.845 478.588 26.1156 481.617L26.0758 481.509Z" fill="#301D1D"/>
<path d="M24.9454 531.104L25.2359 545.613C67.9921 543.9 110.335 540.264 152.683 535.582C194.986 530.843 237.159 524.889 279.168 517.558C363.05 502.727 446.374 482.924 526.8 453.623C566.976 438.838 606.457 421.891 644.141 401.099C681.814 380.411 717.837 355.946 749.37 326.053C780.842 296.258 807.963 260.683 824.606 219.899C841.591 179.255 847.431 134.432 844.223 90.8197L841.495 91.0615C844.226 134.363 837.895 178.509 820.748 218.247C803.887 258.172 776.857 292.868 745.571 321.845C714.168 350.968 678.321 374.719 640.818 394.745C603.349 414.932 563.983 431.264 524.022 445.444C443.87 473.571 360.854 492.36 277.336 506.131C235.532 512.96 193.513 518.407 151.42 522.593C109.332 526.726 66.9871 529.892 24.9959 531.109L24.9454 531.104Z" fill="#301D1D"/>
<path d="M29.6244 577.272L29.9148 591.781C74.323 589.873 118.193 585.766 162.124 580.568C206.01 575.312 249.686 568.624 293.159 560.451C380.014 543.992 466.148 521.656 548.774 488.818C590.085 472.425 630.326 453.047 668.608 429.912C706.614 406.488 742.818 379.271 773.561 346.16C804.243 313.147 829.277 274.064 844.03 230.838C859.231 187.711 862.596 141.169 858.523 96.0561L855.79 96.3497C859.386 141.152 855.518 187.119 840.094 229.44C825.119 271.859 800.079 310 769.533 342.19C738.876 374.474 702.898 400.982 665.067 423.693C627.011 446.119 586.929 464.939 545.784 480.721C463.482 512.391 377.717 533.615 291.221 549.065C247.953 556.737 204.431 562.918 160.755 567.62C117.129 572.327 73.2117 575.906 29.6244 577.272Z" fill="#301D1D"/>
<path d="M29.7952 623.654L29.5253 638.158C76.2568 637.953 122.453 635.027 168.697 630.642C214.901 626.148 260.978 619.916 306.698 611.713C398.057 595.09 488.698 571.075 574.33 533.32C617.112 514.517 658.451 491.906 696.852 464.654C735.202 437.397 770.268 404.888 799.097 367.085C827.78 329.214 849.491 285.763 862.194 239.66C868.397 216.568 872.507 192.998 874.751 169.236C876.842 145.458 876.703 121.555 875.478 97.8017L872.756 97.9918C873.74 121.616 873.642 145.337 871.314 168.934C868.84 192.463 864.549 215.805 858.182 238.515C845.195 283.91 823.317 326.506 794.668 363.544C765.829 400.458 730.949 432.15 692.825 458.698C654.605 485.185 613.537 507.144 570.975 525.29C485.83 561.789 395.664 584.651 304.77 600.224C259.261 607.873 213.489 613.614 167.545 617.559C121.663 621.407 75.4642 623.862 29.6996 623.592L29.7952 623.654Z" fill="#301D1D"/>
<path d="M122.685 556.014C122.704 564.746 115.799 571.875 107.277 571.939C98.7541 572.002 91.8298 564.964 91.8112 556.232C91.7925 547.501 98.6971 540.371 107.22 540.308C115.742 540.245 122.666 547.283 122.685 556.014Z" fill="#2F2F31"/>
<path d="M153.753 438.046C153.148 437.984 152.476 438.071 151.865 438.061C151.96 422.284 152.052 408.023 152.089 398.252C162.319 388.538 171.974 377.98 179.005 366.158C201.114 329.231 187.938 288.826 178.033 284.983C174.254 283.549 171.011 285.828 169.143 287.622C150.492 303.84 147.867 352.601 147.972 380.787C125.036 400.484 98.5276 422.688 88.1273 441.481C69.8349 474.515 88.2811 522.676 139.612 522.369C142.773 522.381 145.713 522.056 148.518 521.561C148.609 527.111 148.706 531.617 148.846 534.715C149.719 553.467 146.89 566.087 140.283 573.299C135.681 578.366 129.251 580.893 120.617 581.049C120.465 581.033 120.314 581.018 120.157 581.054C96.5843 581.187 107.332 557.047 107.281 556.048L91.8564 556.289C91.8298 556.548 90.9609 584.79 120.148 584.607C120.3 584.623 120.501 584.644 120.658 584.608C130.11 584.431 137.558 581.435 142.784 575.752C150.193 567.681 153.177 554.555 152.28 534.546C152.15 531.344 152.024 526.627 151.96 520.818C196.485 509.356 195.079 442.302 153.753 438.046ZM181.965 331.963C179.424 347.227 167.508 363.406 151.955 377.277C151.918 373.666 151.933 369.068 152.113 363.859C152.937 351.399 154.838 335.913 157.551 328.874C164.013 312.185 171.094 309.778 171.144 309.783C176.193 307.794 186.065 307.504 181.965 331.963ZM139.763 516.948C97.9298 513.163 88.3824 476.634 98.9491 452.265C105.769 436.554 127.851 420.69 148.644 401.504C148.572 411.115 148.507 424.124 148.425 438.281C116.738 441.448 107.656 475.169 116.974 486.688C123.489 494.729 129.585 492.482 129.585 492.482C117.159 482.42 126.432 459.225 147.304 459.075C147.657 459.111 148.016 459.096 148.318 459.127C148.243 479.663 148.287 500.524 148.448 515.804C145.823 516.527 142.891 517.27 139.757 517L139.763 516.948ZM151.887 514.59C151.751 499.574 151.728 479.499 151.784 459.641C176.094 462.249 175.63 504.385 151.887 514.59Z" fill="#2F2F31"/>
<path d="M445.831 564.248C436.213 554.552 408.411 525.922 398.931 516.04C392.392 509.236 368.099 484.528 362.508 478.743L362.409 478.725C361.708 477.486 360.189 477.049 358.923 477.768C357.706 478.496 357.265 480.054 357.957 481.344C357.957 481.344 357.973 481.347 358.006 481.353L358.087 481.474C358.087 481.474 358.461 481.965 358.733 482.174C370.681 494.623 421.919 547.011 433.534 559.03C435.791 561.348 435.911 562.374 432.866 564.353C419.694 572.613 413.007 582.911 413.406 598.156C414.067 611.97 424.408 617.728 434.426 611.479C445.255 604.744 451.414 595.354 452.988 582.85C454.129 574.389 450.755 569.17 445.821 564.299L445.831 564.248ZM438.341 594.646C429.972 602.308 420.536 605.387 417.339 601.733C414.101 598.02 418.221 588.784 426.581 581.173C434.95 573.511 444.345 570.372 447.583 574.086C450.821 577.8 446.701 587.035 438.341 594.646Z" fill="#242223"/>
<path d="M316.758 375.38C320.79 364.452 318.24 355.042 310.889 346.705C307.326 342.679 294.933 328.335 292.663 318.692C292.586 317.952 292.464 317.155 292.23 316.452C291.962 315.588 291.211 315.458 290.443 315.484C289.625 315.504 288.977 315.855 288.791 316.673C288.645 317.598 288.599 318.535 288.503 319.466C288.164 326.226 287.881 332.94 287.592 339.706C287.37 344.335 287.199 348.97 286.971 353.651C286.423 365.408 283.642 412.219 283.195 423.987C283.165 425.761 282.833 426.511 281.521 426.376C281.219 426.345 280.764 426.298 280.321 426.148C270.057 423.313 261.906 424.722 254.561 432.172C248.086 439.085 250.108 447.186 257.886 449.398C259.076 449.73 260.271 450.01 261.426 450.181C265.587 450.871 269.491 450.594 273.194 449.302C275.778 448.471 278.209 447.153 280.637 445.364C280.743 445.323 280.804 445.225 280.86 445.178C282.467 443.932 283.62 442.64 284.43 441.207C285.913 438.694 286.307 435.86 286.419 432.787C286.637 424.237 289.254 384.465 289.752 372.703C290.206 372.75 290.896 372.978 291.738 373.221C293.467 373.765 295.185 374.413 296.831 375.262C307.575 380.864 313.103 385.615 311.076 397.376C310.065 403.231 309.209 404.607 310.093 405.43C311.224 406.33 312.186 404.913 314.174 399.473C316.721 392.574 316.654 386.294 314.393 380.52C315.004 379.538 315.734 377.888 316.667 375.266L316.758 375.38ZM308.396 370.912C305.47 367.631 296.725 357.478 292.335 348.61C292.789 348.657 293.429 348.88 294.271 349.123C296 349.667 297.718 350.314 299.364 351.164C310.113 356.714 315.636 361.517 313.609 373.278C313.342 374.871 313.058 376.149 312.856 377.121C311.651 374.958 310.177 372.925 308.345 370.907L308.396 370.912Z" fill="#242223"/>
<path d="M816.91 221.354C811.528 225.086 806.146 228.818 800.709 232.597C795.869 236.019 788.529 241.431 783.639 244.848C781.166 246.579 781.115 246.574 782.246 249.461C788.493 265.054 792.269 274.434 798.516 290.028C801.157 296.572 799.509 302.675 794.031 307.338C791.404 309.577 788.508 310.951 785.048 310.386C781.436 309.805 779.174 307.011 779.452 303.328C779.972 296.795 783.41 292.131 788.799 288.818C790.43 287.836 792.353 287.981 794.138 287.486C794.13 286.074 793.474 285.013 793.031 283.87C786.556 267.521 782.44 257.479 775.914 241.125C775.67 240.525 775.381 239.868 775.187 239.273C774.396 237.048 774.423 236.79 776.354 235.368C778.944 233.492 781.579 231.672 784.164 229.847C789.004 226.425 796.348 220.961 801.188 217.539C805.314 214.619 809.439 211.698 813.615 208.783C815.044 207.78 815.538 207.935 816.331 209.638C816.666 210.352 816.899 211.055 817.228 211.821C824.765 230.736 829.619 243.52 837.581 262.269C840.776 269.864 835.868 280.388 826.96 282.711C821.985 283.976 817.694 280.085 818.293 274.762C818.959 268.297 823.912 261.802 830.331 260.372C832.788 259.789 832.844 259.743 831.917 257.347C827.913 247.212 826.273 243.332 822.218 233.191C820.838 229.756 819.503 226.378 818.123 222.942C817.879 222.342 817.696 221.644 816.91 221.354Z" fill="#2A2A22"/>
<path d="M543.048 400.828C543.258 392.852 539.536 387.398 532.927 383.738C529.74 381.999 518.566 375.621 514.922 369.914C514.717 369.422 514.457 368.977 514.141 368.579C513.786 368.072 513.265 368.175 512.79 368.335C512.258 368.542 511.913 368.924 512.006 369.509C512.093 370.145 512.287 370.74 512.475 371.387C513.754 375.805 515.083 380.228 516.362 384.646C517.269 387.719 518.132 390.735 519.044 393.756C521.31 401.465 529.869 432.246 532.134 439.954C532.471 441.139 532.469 441.661 531.579 441.883C531.366 441.966 531.058 441.987 530.75 442.007C523.502 442.567 518.524 445.348 515.455 451.88C512.803 457.827 515.882 462.587 521.377 462.212C522.251 462.145 523.024 462.068 523.858 461.893C526.668 461.346 529.122 460.292 531.287 458.581C532.777 457.479 534.047 456.042 535.192 454.331C535.198 454.279 535.253 454.232 535.309 454.186C536.093 453.012 536.563 451.91 536.776 450.835C537.186 448.838 536.817 446.971 536.207 444.974C534.485 439.412 527.341 413.22 525.075 405.511C525.388 405.439 525.904 405.388 526.464 405.393C527.691 405.363 528.963 405.389 530.224 405.519C538.423 406.625 543.033 408.406 544.347 416.435C545.008 420.423 544.739 421.546 545.525 421.836C546.462 422.141 546.781 421.024 546.833 417.057C546.941 412.05 545.524 407.983 542.789 404.827C542.97 404.061 543.047 402.815 543.088 400.937L543.048 400.828ZM536.666 399.91C534.059 398.491 526.162 393.967 521.34 389.288C521.654 389.216 522.113 389.211 522.679 389.165C523.906 389.134 525.183 389.109 526.439 389.291C534.638 390.396 539.248 392.178 540.512 400.201C540.708 401.267 540.819 402.167 540.902 402.855C539.64 401.732 538.212 400.748 536.616 399.905L536.666 399.91Z" fill="#161511"/>
<path d="M666.659 304.257C668.499 296.292 674.096 273.137 676.088 265.187C677.465 259.736 682.199 239.523 683.339 234.884L683.289 234.879C683.289 234.879 683.289 234.879 683.294 234.827C683.677 234.083 683.465 233.172 682.745 232.732C682.02 232.344 681.13 232.566 680.697 233.305C680.697 233.305 680.692 233.357 680.687 233.409C680.615 233.61 680.548 233.76 680.527 233.967C678.014 244.006 667.865 286.608 665.495 296.244C665.046 298.132 664.6 298.504 662.712 297.525C654.677 293.352 647.62 293.044 640.278 297.985C633.735 302.591 634.02 309.73 640.117 312.919C646.692 316.419 653.143 316.665 659.732 313.58C664.227 311.534 665.744 308.188 666.67 304.153L666.659 304.257Z" fill="#242223"/>
</g>
<defs>
<clipPath id="clip0_2168_60">
<rect width="822.514" height="638.53" fill="white" transform="translate(65.416) rotate(5.88006)"/>
</clipPath>
</defs>
</svg>
