<svg width="877" height="670" viewBox="0 0 877 670" fill="none" xmlns="http://www.w3.org/2000/svg">
<g clip-path="url(#clip0_2168_14)">
<path d="M842.629 347.616L843.222 359.465C768.109 365.01 693.245 367.002 618.443 366.214C543.72 365.324 469.12 361.469 395.505 352.134C358.737 347.416 322.231 341.346 286.441 333.008C250.728 324.568 215.528 314.076 182.601 299.521C149.855 284.884 118.808 266.046 95.9645 240.221C84.6074 227.38 75.6109 212.793 69.8906 197.046C64.1314 181.35 61.9119 164.569 62.5849 147.874L65.1968 147.803C64.774 164.273 67.1705 180.715 73.0503 196.04C78.8352 211.385 87.8875 225.528 99.1667 237.995C121.846 263.034 152.66 281.229 185.189 295.306C217.956 309.332 252.91 319.357 288.471 327.311C324.11 335.161 360.434 340.837 397.069 345.151C470.35 353.604 544.73 356.641 619.138 356.733C693.567 356.691 768.362 353.892 842.629 347.616Z" fill="#38282A"/>
<path d="M840.833 386.676L841.474 398.515C763.667 404.45 686.199 406.078 608.841 404.442C531.583 402.569 454.422 397.131 378.846 385.052C341.054 378.991 303.722 371.106 267.309 360.737C231.082 350.071 195.569 337.137 163.176 319.444C130.895 301.815 101.383 279.415 80.5366 251.053C70.1502 236.93 61.995 221.389 56.6932 205.036C51.3438 188.692 48.7528 171.556 48.5275 154.357L51.1221 154.204C51.5588 171.229 54.3354 188.067 59.8227 204.122C65.3014 220.136 73.4822 235.326 83.8943 249.098C104.736 276.726 134.053 298.432 166.118 315.501C198.296 332.633 233.6 345.049 269.629 355.238C305.843 365.13 342.984 372.58 380.634 378.195C455.925 389.383 532.722 394.032 609.657 395.065C686.595 395.882 764.041 393.437 840.803 386.769L840.833 386.676Z" fill="#38282A"/>
<path d="M845.362 426.834L846.098 438.653C805.436 442.096 765.031 443.929 724.549 444.915C684.105 445.848 643.7 445.78 603.355 444.576C522.78 442.013 442.389 435.348 364.083 420.641C324.956 413.174 286.338 403.872 249.155 391.244C211.989 378.698 176.126 362.899 144.141 342.182C112.221 321.538 84.0234 295.708 65.399 264.462C46.4595 233.368 37.7969 197.618 37.799 161.83L40.4022 161.718C40.8317 197.2 49.9128 232.343 68.9426 262.683C87.7134 293.208 115.763 318.334 147.45 338.335C179.258 358.44 214.905 373.68 251.863 385.707C288.799 397.868 327.267 406.683 366.147 413.683C444.112 427.468 524.14 433.343 604.295 435.086C644.411 435.906 684.635 435.58 724.841 434.221C765.038 432.82 805.412 430.604 845.314 426.844L845.362 426.834Z" fill="#38282A"/>
<path d="M844.143 464.864L844.879 476.683C802.636 480.154 760.751 481.778 718.732 482.523C676.751 483.216 634.869 482.722 593.077 480.999C509.571 477.449 426.338 469.045 345.699 451.713C305.384 443.068 265.875 431.877 227.962 417.414C190.29 402.684 154.063 384.669 122.603 361.25C91.208 337.903 64.7446 308.987 47.7423 275.543C30.3213 242.23 23.8854 204.805 24.6035 167.699L27.2154 167.629C26.9289 204.428 33.8005 241.329 51.3766 273.962C68.534 306.725 94.9364 334.876 126.145 357.57C157.466 380.327 193.43 397.791 230.886 411.962C268.536 425.875 307.854 436.63 347.971 444.798C428.22 461.217 511.025 468.76 594.121 471.531C635.684 472.87 677.384 472.97 719.127 471.851C760.823 470.742 802.716 468.683 844.143 464.864Z" fill="#38282A"/>
<path d="M847.215 502.56L848.482 514.311C804.155 519.428 760.147 522.274 715.991 523.941C671.865 525.515 627.738 525.663 583.813 524.169C496.024 520.996 408.401 511.738 324.57 490.751C282.691 480.315 241.915 466.623 203.603 448.828C165.338 431.024 129.821 408.582 99.8482 381.134C70.0095 353.615 46.3935 320.776 31.1339 284.763C23.6423 266.707 18.1016 248.026 14.318 228.978C10.6767 209.9 9.14218 190.468 8.64805 171.035L11.2426 170.882C11.9569 190.182 13.7029 209.44 17.5556 228.344C21.5421 247.177 27.238 265.652 34.8589 283.38C50.3384 318.784 74.0533 350.912 103.801 377.758C133.721 404.482 169.005 426.281 207.006 443.535C245.094 460.729 285.567 473.922 327.191 483.85C410.473 503.871 497.565 512.246 584.84 514.619C628.527 515.686 672.33 515.174 716.17 513.184C759.946 511.122 803.924 507.893 847.301 502.499L847.215 502.56Z" fill="#38282A"/>
<path d="M402.881 496.941C412.077 488.535 438.662 463.744 447.728 455.193C453.98 449.304 477.208 427.894 482.555 422.887L482.65 422.867C483.323 421.818 484.769 421.386 485.969 421.913C487.122 422.45 487.533 423.704 486.869 424.794C486.869 424.794 486.853 424.797 486.821 424.804L486.743 424.907C486.743 424.907 486.385 425.327 486.126 425.511C474.7 436.285 425.707 481.666 414.6 492.071C412.442 494.078 412.322 494.924 415.207 496.396C427.687 502.518 433.99 510.623 433.531 523.123C432.829 534.465 422.967 539.682 413.475 535.053C403.214 530.066 397.408 522.679 395.978 512.518C394.938 505.647 398.173 501.21 402.89 496.982L402.881 496.941ZM409.841 521.463C417.758 527.328 426.713 529.39 429.772 526.243C432.87 523.045 429.002 515.685 421.094 509.861C413.177 503.995 404.261 501.882 401.163 505.08C398.065 508.278 401.933 515.638 409.841 521.463Z" fill="#252324"/>
<path d="M72.7982 264.772C78.1616 267.195 83.5249 269.618 88.9444 272.073C93.7723 274.305 101.109 277.871 105.985 280.094C108.451 281.221 108.498 281.211 107.627 283.684C102.791 297.056 99.8635 305.103 95.0269 318.475C92.9792 324.09 94.9677 328.861 100.487 332.029C103.134 333.551 105.975 334.34 109.217 333.489C112.601 332.609 114.552 330.083 114.032 327.123C113.083 321.875 109.498 318.476 104.157 316.394C102.542 315.78 100.729 316.116 99.0016 315.915C98.9103 314.767 99.4581 313.832 99.7987 312.853C104.799 298.841 108.002 290.218 113.05 276.197C113.24 275.681 113.468 275.115 113.61 274.61C114.205 272.713 114.162 272.506 112.231 271.57C109.645 270.339 107.019 269.159 104.441 267.969C99.6133 265.736 92.2676 262.128 87.4397 259.896C83.3243 257.99 79.2089 256.084 75.046 254.188C73.621 253.535 73.1634 253.717 72.5296 255.19C72.2623 255.807 72.0899 256.405 71.8312 257.064C66.0031 273.281 62.2919 284.214 56.0493 300.344C53.5489 306.875 58.9369 314.868 67.546 315.748C72.3513 316.213 76.1485 312.567 75.2094 308.311C74.1272 303.135 68.9785 298.419 62.7917 297.984C60.4214 297.788 60.3652 297.756 61.0765 295.706C64.1672 287.02 65.4519 283.683 68.5902 274.988C69.6592 272.041 70.6894 269.146 71.7585 266.2C71.9482 265.684 72.0731 265.096 72.7982 264.772Z" fill="#0A0A0A"/>
<path d="M344.995 379.592C344.241 373.137 347.39 368.286 353.402 364.566C356.302 362.793 366.453 356.348 369.511 351.3C369.67 350.878 369.886 350.487 370.158 350.128C370.46 349.676 370.961 349.701 371.422 349.777C371.941 349.885 372.295 350.157 372.248 350.642C372.209 351.169 372.067 351.674 371.933 352.22C371.029 355.954 370.077 359.697 369.172 363.43C368.526 366.029 367.918 368.576 367.264 371.134C365.653 377.651 359.683 403.622 358.072 410.14C357.835 411.14 357.874 411.564 358.733 411.644C358.941 411.687 359.234 411.669 359.528 411.651C366.439 411.287 371.353 412.982 374.719 417.941C377.649 422.472 375.061 426.687 369.824 427.003C368.991 427.048 368.253 427.073 367.45 427.024C364.747 426.898 362.346 426.319 360.174 425.174C358.684 424.448 357.38 423.424 356.175 422.163C356.166 422.122 356.11 422.09 356.054 422.059C355.229 421.194 354.706 420.352 354.429 419.503C353.901 417.927 354.121 416.369 354.56 414.678C355.805 409.965 360.754 387.882 362.365 381.364C362.063 381.341 361.57 381.357 361.039 381.425C359.874 381.539 358.669 381.704 357.482 381.953C349.786 383.778 345.539 385.746 344.851 392.416C344.503 395.731 344.836 396.612 344.111 396.936C343.244 397.291 342.863 396.419 342.538 393.202C342.087 389.147 343.147 385.684 345.52 382.811C345.295 382.21 345.135 381.206 344.965 379.685L344.995 379.592ZM350.983 378.125C353.356 376.678 360.529 372.109 364.775 367.764C364.473 367.741 364.037 367.789 363.497 367.815C362.332 367.929 361.119 368.053 359.94 368.342C352.243 370.168 347.996 372.136 347.357 378.796C347.245 379.684 347.202 380.428 347.172 380.996C348.29 379.941 349.576 378.981 351.03 378.115L350.983 378.125Z" fill="#060606"/>
<path d="M221.051 315.125C218.751 308.863 211.829 290.687 209.387 284.455C207.701 280.183 201.803 264.3 200.398 260.66L200.446 260.65C200.446 260.65 200.446 260.65 200.437 260.609C200.022 260.047 200.16 259.284 200.812 258.845C201.472 258.447 202.331 258.527 202.793 259.079C202.793 259.079 202.802 259.12 202.811 259.162C202.893 259.317 202.966 259.432 203.001 259.597C206.083 267.468 218.678 300.926 221.596 308.485C222.154 309.967 222.603 310.219 224.325 309.211C231.653 304.913 238.323 303.864 245.629 307.048C252.154 310.049 252.382 315.88 246.823 319.16C240.833 322.746 234.733 323.675 228.269 321.915C223.865 320.761 222.193 318.214 221.034 315.042L221.051 315.125Z" fill="#2F2F31"/>
</g>
<defs>
<clipPath id="clip0_2168_14">
<rect width="786.604" height="519.538" fill="white" transform="matrix(-0.978841 0.204622 0.204622 0.978841 769.961 0)"/>
</clipPath>
</defs>
</svg>
