<svg width="1440" height="106" viewBox="0 0 1440 106" fill="none" xmlns="http://www.w3.org/2000/svg">
<path d="M1485.59 35.3502C1481.94 33.943 1478.71 33.2167 1475.19 36.4851C1469.09 39.118 1464.18 42.2503 1457.81 41.1608C1452 43.249 1446.16 50.5122 1440.24 43.1581C1431.43 33.3982 1422.84 36.6213 1414.08 35.2594C1402.45 29.4034 1390.7 32.4903 1379.04 35.3502C1372.51 35.3048 1368.99 38.2101 1363.18 39.345C1360.69 42.9312 1359.27 46.0635 1356.69 40.5253C1349.45 42.2049 1341.02 50.6484 1333.98 40.6615C1330.72 41.4786 1328.13 29.585 1324.87 35.7588C1321.87 40.5253 1318.7 35.6226 1315.67 35.3048C1310.89 43.7029 1309.76 35.0778 1305.4 31.31C1302.2 20.7783 1298.87 33.7159 1295.55 30.0389C1285.37 33.8975 1275.2 27.86 1265.05 30.1751C1258.76 33.6251 1251.94 15.9211 1245.74 29.9482C1238.63 24.0014 1232.66 36.5305 1225.84 39.9805C1222.68 49.2411 1219.84 30.6745 1216.7 44.3838C1207.05 54.1892 1197.74 42.9766 1187.57 48.2425C1182.27 49.1504 1177.23 56.1866 1172.23 45.7911C1168.8 56.8675 1166.09 33.943 1162.83 37.7562C1157.08 22.004 1151.01 26.0896 1144.74 32.7627C1137.76 30.9469 1130.98 34.0337 1124.17 35.3048C1117.35 37.3476 1110.54 31.991 1103.5 38.0285C1097.58 36.8937 1093.32 34.3515 1088.19 40.4798C1080.72 39.8443 1073.36 46.1997 1066.13 41.07C1060.02 47.4253 1052.92 23.1843 1046.68 40.4798C1038.61 47.3799 1030.5 33.3982 1022.43 40.4798C1014.35 25.0909 1006.24 61.1801 998.169 40.4798C989.739 44.747 981.276 32.6265 972.846 40.5253C965.773 25.6357 961.219 31.4008 954.533 33.1258C949.139 29.6304 943.454 30.1752 938.028 32.3541C934.895 31.0377 932.602 37.5746 929.727 27.4514C926.303 12.7434 923.72 18.5086 920.231 24.5461C916.42 11.5177 913.933 20.1428 909.831 19.6888C902.37 24.6369 892.39 33.943 885.219 19.5073C881.828 16.3296 879.47 17.0559 875.917 12.4256C871.686 8.06769 868.618 13.3335 864.709 14.8316C859.122 17.1921 853.792 27.1337 847.752 22.6849C844.232 32.9896 841.131 18.6447 837.707 20.4605C834.155 9.02094 828.954 11.5177 825.369 20.4152C823.27 19.9158 821.719 24.0922 819.297 24.5461C815.066 23.4567 810.383 30.9469 806.055 25.0455C801.371 17.1013 796.914 29.9482 792.554 23.3205C787.224 16.148 781.217 10.292 775.048 14.0144C768.878 21.2323 762.516 4.61767 756.443 12.7888C749.144 14.3322 741.876 18.2362 734.48 19.6435C727.116 19.825 719.622 19.7343 711.968 22.5034C705.443 27.3153 698.887 21.1869 692.588 20.052C687.84 17.0559 685.127 14.4684 680.347 12.698C673.855 17.3283 667.88 11.7901 662.098 16.148C658.255 22.5941 654.54 22.231 650.309 24.7731C647.305 24.7731 643.849 25.0908 640.781 25.0001C632.286 21.777 621.369 28.2232 613.94 27.5876C608.482 34.987 603.12 29.7212 596.919 30.2206C592.106 28.1324 589.716 37.6654 585.743 28.314C584.71 28.7225 583.902 22.1856 582.74 25.5448C580.317 18.781 576.441 23.3205 573.954 24.9093C570.078 23.6383 571.338 26.4527 568.205 28.904C563.134 36.3943 557.482 27.3606 551.571 32.7627C544.821 37.4384 538.361 29.7666 531.966 33.035C525.57 33.9429 519.208 41.6147 512.683 37.3022C504.641 43.8391 497.212 45.1555 488.782 43.1581C482.742 44.747 475.119 41.5693 469.209 42.8858C467.465 41.8417 466.399 47.1529 464.687 45.6549C457.646 50.7392 450.055 52.1918 442.724 48.2878C437.071 45.5187 431.387 46.4267 425.734 48.2425C418.499 42.5681 410.231 43.476 403.222 48.7418C396.794 61.1347 392.111 63.9946 385.135 56.1412C376.834 57.2307 366.369 54.1438 358.133 56.1412C354.677 57.1853 354.87 56.4136 352.028 51.2839C350.252 55.0971 346.925 45.7911 345.052 48.8326C340.368 45.6549 336.169 53.7353 331.841 41.2062C329.451 37.4384 327.416 42.6134 324.8 35.8041C320.924 37.5292 316.532 45.2917 312.559 35.3048C305.905 28.4501 300.253 37.4384 293.761 37.9831C283.78 43.3851 274.091 37.1206 264.272 35.9858C259.136 26.4528 258.038 29.0403 253.549 30.0844C250.351 20.5514 250.48 29.4488 247.283 27.86C242.502 29.0403 237.593 13.9237 232.877 19.2349C223.704 13.2427 211.722 2.48409 201.838 17.3283C196.832 16.4658 187.465 16.9197 183.298 16.8743C181.974 14.1506 181.328 11.4723 180.101 11.5177C178.712 1.66698 176.548 5.02623 174.901 7.61375C168.732 -2.46398 162.627 5.97947 156.006 4.43603C151.193 6.02487 147.899 12.5164 143.312 2.4387C137.046 -0.602778 130.167 2.34789 123.739 1.84854C121.704 -1.37452 119.476 0.168877 117.538 2.30245C115.341 0.849805 114.695 4.98078 112.176 7.20514C108.882 11.4269 104.263 6.34267 100.775 7.02359C93.7981 3.89132 86.8215 0.804449 79.8449 7.02359C71.1565 9.70191 64.7613 10.746 56.7835 15.4217C48.8702 16.9197 41.6353 21.9586 33.0437 19.8704C28.5865 21.1415 21.6099 15.8303 17.3465 19.5981C14.4395 29.4942 13.8905 27.406 11.468 25.8626C9.8531 24.4099 8.20586 29.6304 6.49401 28.1778C-1.80682 26.0896 -8.91259 37.0752 -17.8594 32.7627C-17.8594 34.0337 -27 70.1229 -27 68.8065C-23.8024 75.0256 -22.0906 72.0295 -19.216 73.5276C-16.5351 72.2565 -13.7251 71.621 -10.9797 73.9362C-6.39327 67.8986 -0.902451 78.7934 3.6194 73.7545C8.52884 73.8453 12.437 83.4691 17.3465 81.1086C23.3218 83.1059 29.394 77.9309 34.7879 77.9763C41.9583 73.9816 46.2483 68.6249 54 61.0439C55.6149 63.7676 61.9497 63.0804 63.5 67.4837C68.5709 66.4396 75.097 54.2346 79.8449 66.2189C84.1084 66.2189 87.5 58.6329 92.5 61.0439C97.5 63.4548 92.8167 64.1811 97.5 63.4548C101.214 67.1772 108.3 61.5128 112.176 70.0017C118.41 68.4583 120.332 51.777 125.5 67.4837C133.349 68.891 153.925 61.5028 162 63.4548C169.364 65.1798 171 60.0452 177.549 60.9077C182.911 59.3643 188.757 68.7611 193.634 66.2189C199.157 66.2189 205.036 69.6236 210.914 73.346C220.152 71.6664 231.133 65.2657 240.564 73.9362C246.734 75.5704 253.032 73.2552 259.201 73.8907C265.693 66.2643 269.763 83.2876 276.319 81.8803C282.295 83.0152 289.594 86.2382 295.408 81.5625C297.346 86.6014 298.735 86.329 300.641 84.4224C303.289 83.9231 306.907 82.9698 309.62 84.2863C311.396 79.429 313.722 82.879 315.433 83.9231C317.694 83.8323 318.534 82.0165 320.73 76.9776C323.605 77.4316 329.871 82.652 332.746 76.569C337.591 75.8427 342.435 80.0645 346.828 79.0658C353.288 85.5119 357.874 89.4613 365.82 89.5975C371.666 80.0191 377.674 87.01 383.552 89.4613C388.687 91.9581 394.146 90.1422 398.765 87.9633C400.315 87.4185 401.575 82.4251 403.222 84.2863C406.516 87.0554 410.295 84.4224 413.816 81.6987C419.404 79.7013 425.088 86.4652 430.676 81.7441C434.487 84.6494 442.045 91.3225 445.501 81.2902C447.924 67.8532 448.796 72.4381 451.154 72.0295C456.612 66.7637 466.528 73.9816 472.891 68.8973C476.25 71.8934 475.669 67.5354 479.48 70.3953C484.486 66.0373 488.297 90.5508 493.53 82.0619C499.505 80.1553 505.48 89.5521 511.682 84.3316C518.82 85.4665 525.958 88.6896 533.096 84.3316C534.905 85.6027 537.327 88.054 539.104 84.0138C544.595 88.4172 545.886 91.5949 550.634 94.3186C554.769 103.488 559.613 97.4055 563.909 94.5002C569.852 83.8323 575.182 98.1318 581.286 97.2239C587.391 90.8685 593.495 96.9515 599.632 97.2239C603.637 95.0449 608.256 96.0436 612.196 97.0877C615.588 92.7751 618.527 106.893 621.918 99.9022C630.704 102.807 640.167 98.7673 648.177 94.137C652.99 93.6831 656.833 86.2382 661.807 84.5132C664.424 87.1915 666.039 74.1631 668.461 80.3823C671.982 76.4783 675.567 82.3343 679.41 79.2474C685.03 89.6429 691.07 75.525 696.658 79.429C704.83 83.6507 710.643 75.2526 717.911 64.8571C722.368 64.4032 728.795 69.0789 733.608 63.6314C739.777 69.215 744.751 63.813 750.662 68.4887C752.567 65.992 754.441 81.7441 756.314 69.4874C758.155 70.0775 760.029 77.25 761.87 73.6637C772.108 68.6703 782.864 91.7311 793.716 81.9257C800.628 79.3382 807.605 85.1033 814.517 81.6079C821.461 75.7973 828.341 78.4303 835.059 83.8323C840.873 90.7324 846.59 96.1798 852.048 81.2447C857.668 68.3071 860.446 74.6625 866.647 76.6598C877.629 75.9335 888.578 74.3901 899.56 76.6598C905.858 79.8375 912.189 77.8855 918.487 76.6598C924.43 75.071 928.855 73.0736 934.604 79.2928C946.2 83.3329 957.149 74.2993 967.485 84.3316C971.877 88.6896 976.658 101.037 981.179 91.958C988.447 91.7764 995.391 99.312 1003.47 102.036C1012.67 106.711 1019.52 93.9554 1028.43 97.6778C1040.16 101.9 1051.62 86.2836 1063.67 94.6817C1071 90.233 1081.27 98.9943 1088.22 94.2732C1093.74 93.5015 1096.26 89.9153 1102.59 84.3316C1108.15 77.7493 1114.32 95.2265 1119.84 84.1047C1125.75 86.1474 1131.08 86.1021 1136.99 89.7791C1141.03 100.538 1145.42 84.5586 1149.52 89.5067C1156.37 90.233 1163.25 81.9711 1170.1 89.5067C1176.94 89.3705 1183.82 88.7804 1190.67 89.5067C1198.07 75.8427 1205.62 95.0903 1212.73 92.6843C1219.09 102.989 1223.23 101.99 1230.4 102.49C1238.57 109.753 1243.9 99.4936 1251.55 96.4522C1258.24 96.9515 1264.93 95.635 1271.64 94.0916C1279.04 93.7284 1285.6 92.3666 1292.35 86.9646C1299.78 85.5119 1305.27 72.9374 1313.83 81.8349C1324.74 87.4185 1335.66 89.6883 1346.58 81.8349C1352.91 87.0553 1357.33 80.3823 1363.66 79.2928C1372.19 72.8013 1380.1 84.2409 1388.47 81.2902C1396.93 82.9698 1405.98 89.3705 1414.53 84.377C1420.86 85.4211 1425.48 86.3291 1431.3 93.2291C1438.21 100.356 1447.12 87.9178 1454.62 94.7271C1460.92 99.3574 1465.28 90.2784 1471.09 89.6429C1476.58 89.9606 1489.76 90.9139 1492.79 79.2928C1492.79 69.8506 1501.94 23.1843 1501.94 30.4021C1498.87 42.2503 1489.86 34.7146 1485.53 35.5772L1485.59 35.3502Z" fill="white"/>
</svg>
